<svg xmlns="http://www.w3.org/2000/svg" version="1.1" xmlns:xlink="http://www.w3.org/1999/xlink" xmlns:svgjs="http://svgjs.com/svgjs" width="1340" height="560" preserveAspectRatio="none" viewBox="0 0 1350 560"><g mask="url(&quot;#SvgjsMask1022&quot;)" fill="none"><rect width="1350" height="560" x="0" y="0" fill="rgba(178, 203, 213, 1)"></rect><path d="M791.08 156.09L843.47 156.09L843.47 176.4L791.08 176.4z" fill="rgba(14, 183, 206, 1)"></path><path d="M1037.73 160.45L1089.49 160.45L1089.49 196.26L1037.73 196.26z" fill="rgba(50, 188, 35, 1)"></path><path d="M840.92 142.76a33.91 33.91 0 1 0 7.9 67.36z" stroke="#e73635"></path><path d="M1117.1 154.71 a31.37 31.37 0 1 0 62.74 0 a31.37 31.37 0 1 0 -62.74 0z" fill="rgba(14, 183, 206, 1)"></path><path d="M287.26 257.35L333.49 257.35L333.49 306.15L287.26 306.15z" fill="rgba(50, 188, 35, 1)"></path><path d="M699.55 349.98a26.52 26.52 0 1 0-13.24 51.36z" fill="#e73635"></path><path d="M967.74 332.2a24.27 24.27 0 1 0-47.41 10.42z" fill="rgba(50, 188, 35, 1)"></path><path d="M249.84 159.71L293.01 159.71L293.01 194.47L249.84 194.47z" fill="rgba(50, 188, 35, 1)"></path><path d="M393.49 175.22L413.81 175.22L413.81 214.43L393.49 214.43z" fill="#e73635"></path><path d="M514.74 573.55a48.57 48.57 0 1 0-7.19-96.87z" stroke="rgba(14, 183, 206, 1)"></path><path d="M173.53 265.43a47.22 47.22 0 1 0 71.25 61.98z" fill="rgba(14, 183, 206, 1)"></path><path d="M755.76 92.42L797.11 92.42L797.11 133.77L755.76 133.77z" fill="#e73635"></path><path d="M993.97 162.67L1044.16 162.67L1044.16 212.86L993.97 212.86z" stroke="rgba(14, 183, 206, 1)"></path><path d="M133.83 132.82L173.13 132.82L173.13 132.9L133.83 132.9z" fill="#e73635"></path><path d="M100.83 428.77L109.83 428.77L109.83 478.86L100.83 478.86z" fill="rgba(50, 188, 35, 1)"></path><path d="M406.36 427.22 a29.29 29.29 0 1 0 58.58 0 a29.29 29.29 0 1 0 -58.58 0z" stroke="#e73635"></path><path d="M780.5 491.02L791.67 491.02L791.67 537.37L780.5 537.37z" fill="rgba(14, 183, 206, 1)"></path><path d="M158.26 90.25L195.75 90.25L195.75 106.7L158.26 106.7z" stroke="rgba(14, 183, 206, 1)"></path><path d="M1291.42 12.03 a10.52 10.52 0 1 0 21.04 0 a10.52 10.52 0 1 0 -21.04 0z" stroke="#e73635"></path><path d="M425.8 112.94a32.06 32.06 0 1 0-56.85-29.65z" stroke="rgba(14, 183, 206, 1)"></path><path d="M-6.97 74.88a53.97 53.97 0 1 0 74.63 77.98z" fill="rgba(14, 183, 206, 1)"></path><path d="M779.17 380.38 a26.27 26.27 0 1 0 52.54 0 a26.27 26.27 0 1 0 -52.54 0z" fill="rgba(50, 188, 35, 1)"></path><path d="M380.81 65.39a54.13 54.13 0 1 0 54.72 93.42z" stroke="rgba(50, 188, 35, 1)"></path><path d="M155.3 202.17 a30.21 30.21 0 1 0 60.42 0 a30.21 30.21 0 1 0 -60.42 0z" stroke="#e73635"></path><path d="M114.14 417.01L139.77 417.01L139.77 431.65L114.14 431.65z" stroke="#e73635"></path><path d="M506.8 21.29 a2.31 2.31 0 1 0 4.62 0 a2.31 2.31 0 1 0 -4.62 0z" stroke="rgba(14, 183, 206, 1)"></path><path d="M424.5 383.26 a24.98 24.98 0 1 0 49.96 0 a24.98 24.98 0 1 0 -49.96 0z" stroke="rgba(14, 183, 206, 1)"></path><path d="M934.58 230.33L983.52 230.33L983.52 279.27L934.58 279.27z" stroke="rgba(50, 188, 35, 1)"></path><path d="M581.55 218.52L601.39 218.52L601.39 238.36L581.55 238.36z" fill="#e73635"></path><path d="M368.04 401.34 a40.31 40.31 0 1 0 80.62 0 a40.31 40.31 0 1 0 -80.62 0z" stroke="#e73635"></path><path d="M1217.53 349.26 a23.73 23.73 0 1 0 47.46 0 a23.73 23.73 0 1 0 -47.46 0z" fill="#e73635"></path></g><defs><mask id="SvgjsMask1022"><rect width="1350" height="560" fill="#ffffff"></rect></mask></defs></svg>